<svg width="124" height="123" viewBox="0 0 124 123" fill="none" xmlns="http://www.w3.org/2000/svg">
<rect width="124" height="123" fill="#1E1E1E"/>
<rect id="body" x="9.5" y="48.5" width="74" height="74" rx="11.5" stroke="white"/>
<path id="lense" d="M85.3114 83.8829L119.42 62.4626C121.085 61.417 123.25 62.6137 123.25 64.5797V107.42C123.25 109.386 121.085 110.583 119.42 109.537L85.3114 88.1171C83.7508 87.1371 83.7508 84.8629 85.3114 83.8829Z" stroke="white"/>
<path id="wheel-one" d="M44.5 24C44.5 37.0096 34.6204 47.5 22.5 47.5C10.3796 47.5 0.5 37.0096 0.5 24C0.5 10.9904 10.3796 0.5 22.5 0.5C34.6204 0.5 44.5 10.9904 44.5 24Z" stroke="white"/>
<path id="wheel-two" d="M98.5 24C98.5 36.999 88.4066 47.5 76 47.5C63.5934 47.5 53.5 36.999 53.5 24C53.5 11.001 63.5934 0.5 76 0.5C88.4066 0.5 98.5 11.001 98.5 24Z" stroke="white"/>
<g id="film-one" filter="url(#filter0_d_0_1)">
<circle cx="22.5" cy="24.5" r="15" stroke="white" stroke-dasharray="22 22" shape-rendering="crispEdges"/>
</g>
<g id="film-two" filter="url(#filter1_d_0_1)">
<circle cx="75.5" cy="24.5" r="15" stroke="white" stroke-dasharray="22 22" shape-rendering="crispEdges"/>
</g>
<defs>
<filter id="filter0_d_0_1" x="3" y="9" width="39" height="39" filterUnits="userSpaceOnUse" color-interpolation-filters="sRGB">
<feFlood flood-opacity="0" result="BackgroundImageFix"/>
<feColorMatrix in="SourceAlpha" type="matrix" values="0 0 0 0 0 0 0 0 0 0 0 0 0 0 0 0 0 0 127 0" result="hardAlpha"/>
<feOffset dy="4"/>
<feGaussianBlur stdDeviation="2"/>
<feComposite in2="hardAlpha" operator="out"/>
<feColorMatrix type="matrix" values="0 0 0 0 0 0 0 0 0 0 0 0 0 0 0 0 0 0 0.25 0"/>
<feBlend mode="normal" in2="BackgroundImageFix" result="effect1_dropShadow_0_1"/>
<feBlend mode="normal" in="SourceGraphic" in2="effect1_dropShadow_0_1" result="shape"/>
</filter>
<filter id="filter1_d_0_1" x="56" y="9" width="39" height="39" filterUnits="userSpaceOnUse" color-interpolation-filters="sRGB">
<feFlood flood-opacity="0" result="BackgroundImageFix"/>
<feColorMatrix in="SourceAlpha" type="matrix" values="0 0 0 0 0 0 0 0 0 0 0 0 0 0 0 0 0 0 127 0" result="hardAlpha"/>
<feOffset dy="4"/>
<feGaussianBlur stdDeviation="2"/>
<feComposite in2="hardAlpha" operator="out"/>
<feColorMatrix type="matrix" values="0 0 0 0 0 0 0 0 0 0 0 0 0 0 0 0 0 0 0.25 0"/>
<feBlend mode="normal" in2="BackgroundImageFix" result="effect1_dropShadow_0_1"/>
<feBlend mode="normal" in="SourceGraphic" in2="effect1_dropShadow_0_1" result="shape"/>
</filter>
</defs>
</svg>
