<svg width="100" height="100" viewBox="0 0 100 100" fill="none" xmlns="http://www.w3.org/2000/svg">
<g id="Frame 1">
<path id="play1" d="M66.4759 50.322L51.7087 58.2388C50.7095 58.7745 49.5 58.0506 49.5 56.9168V41.0832C49.5 39.9494 50.7095 39.2255 51.7087 39.7612L66.4759 47.678C67.5309 48.2436 67.5309 49.7564 66.4759 50.322Z" stroke="#fffcf4" stroke-opacity="0.26"/>
<path id="play2" d="M57.4759 50.322L42.7087 58.2388C41.7095 58.7745 40.5 58.0506 40.5 56.9168V41.0832C40.5 39.9494 41.7095 39.2255 42.7087 39.7612L57.4759 47.678C58.5309 48.2436 58.5309 49.7564 57.4759 50.322Z" stroke="#fffcf4" stroke-opacity="0.56"/>
<path id="play3" d="M57.4759 50.322L42.7087 58.2388C41.7095 58.7745 40.5 58.0506 40.5 56.9168V41.0832C40.5 39.9494 41.7095 39.2255 42.7087 39.7612L57.4759 47.678C58.5309 48.2436 58.5309 49.7564 57.4759 50.322Z" stroke="#fffcf4"/>
</g>
</svg>
